<svg width="36" height="29" viewBox="0 0 36 29" fill="none" xmlns="http://www.w3.org/2000/svg">
<path d="M35.2794 3.62927C34.0016 4.19724 32.6265 4.58035 31.1836 4.7518C32.6568 3.86986 33.7864 2.47286 34.3191 0.806344C32.9412 1.62408 31.4158 2.21745 29.7909 2.53777C28.4905 1.15207 26.637 0.285645 24.586 0.285645C20.6483 0.285645 17.4557 3.47828 17.4557 7.41668C17.4557 7.97478 17.5185 8.51876 17.6405 9.04158C11.7139 8.74383 6.45889 5.90539 2.9417 1.59092C2.32787 2.64361 1.9765 3.86845 1.9765 5.17655C1.9765 7.65022 3.23521 9.83321 5.14868 11.1117C3.98028 11.0743 2.88032 10.7533 1.91865 10.2191C1.91794 10.2488 1.91794 10.2791 1.91794 10.3095C1.91794 13.7639 4.37609 16.6453 7.63858 17.3015C7.04027 17.4638 6.41021 17.5513 5.75969 17.5513C5.29967 17.5513 4.85305 17.5068 4.41772 17.4229C5.32577 20.2557 7.9589 22.318 11.0789 22.3751C8.63835 24.2879 5.56425 25.4281 2.22274 25.4281C1.64772 25.4281 1.07974 25.3942 0.521651 25.3279C3.6783 27.3521 7.42621 28.5318 11.4528 28.5318C24.5698 28.5318 31.7417 17.6663 31.7417 8.24289C31.7417 7.93386 31.7354 7.62553 31.722 7.31932C33.1147 6.31602 34.3241 5.05943 35.2794 3.62927Z" fill="white"/>
</svg>
